<?xml version="1.0" standalone="no"?>
<!DOCTYPE svg PUBLIC "-//W3C//DTD SVG 20010904//EN"
 "http://www.w3.org/TR/2001/REC-SVG-20010904/DTD/svg10.dtd">
<svg version="1.0" xmlns="http://www.w3.org/2000/svg"
 width="306.000000pt" height="500.000000pt" viewBox="0 0 306.000000 500.000000"
 preserveAspectRatio="xMidYMid meet">

<g transform="translate(0.000000,500.000000) scale(0.100000,-0.100000)"
fill="#ffdd00" stroke="none">
  <path d="M1513 4990 c-19 -8 -23 -17 -23 -49 0 -51 15 -60 48 -28 15 14 47 35
  71 45 40 19 42 21 23 31 -24 13 -88 13 -119 1z"/>
  <path d="M1433 4946 c-28 -24 -31 -30 -22 -58 15 -54 72 -137 131 -194 32 -31
  62 -53 68 -49 5 3 14 24 21 47 9 36 8 42 -8 51 -27 16 -113 99 -125 122 -6 11
  -16 40 -22 64 l-12 43 -31 -26z"/>
  <path d="M1633 4950 c-34 -8 -49 -17 -95 -58 -21 -20 -25 -28 -16 -42 10 -16
  16 -15 82 11 39 15 88 30 109 34 l38 7 -27 29 c-29 30 -38 32 -91 19z"/>
  <path d="M1369 4851 c-10 -35 -9 -45 14 -95 43 -93 155 -185 195 -159 26 16
  23 27 -19 58 -48 37 -125 135 -151 193 -10 23 -21 42 -23 42 -2 0 -9 -17 -16
  -39z"/>
  <path d="M1622 4856 c-35 -13 -66 -27 -70 -31 -7 -7 28 -37 70 -60 26 -15 30
  -14 74 20 25 19 54 35 65 35 21 0 22 3 13 38 -5 18 -13 22 -48 21 -22 0 -69
  -11 -104 -23z"/>
  <path d="M1760 4773 c-1 -16 -9 -53 -20 -83 -18 -54 -18 -54 1 -30 22 28 51
  118 43 131 -11 18 -24 8 -24 -18z"/>
  <path d="M1688 4761 c-21 -18 -38 -45 -45 -73 -6 -24 -23 -60 -37 -81 l-25
  -37 24 0 c30 0 88 49 108 93 21 43 33 127 18 127 -5 0 -25 -13 -43 -29z"/>
  <path d="M1360 4742 c0 -21 38 -90 63 -112 25 -25 90 -60 109 -60 7 0 -5 12
  -27 26 -60 40 -85 64 -116 113 -16 25 -29 39 -29 33z"/>

  <path fill="#195da6" d="M2947 4000 c-14 -16 -60 -94 -103 -172 -95 -173 -175 -260 -294 -322
  -41 -21 -112 -61 -156 -88 -75 -45 -88 -50 -160 -54 -44 -3 -107 -12 -142 -20
  -70 -17 -125 -12 -211 17 -96 33 -185 20 -338 -52 -47 -21 -91 -39 -97 -39 -6
  0 -39 -13 -73 -29 -64 -30 -144 -57 -127 -42 5 4 30 16 56 25 26 10 58 26 70
  36 l23 18 -24 26 c-26 27 -26 62 0 124 14 35 15 32 -47 155 -8 16 -14 35 -14
  43 0 8 -6 14 -12 14 -7 0 -39 16 -71 36 -51 32 -64 35 -101 30 -103 -16 -183
  -109 -193 -225 -9 -92 7 -124 92 -187 122 -89 128 -118 33 -149 -29 -10 -106
  -45 -171 -78 l-118 -61 -97 -1 c-105 -1 -160 -18 -252 -78 -44 -28 -43 -27 17
  30 55 52 63 65 83 133 31 104 42 123 132 217 58 61 88 102 113 156 35 77 60
  165 49 176 -3 3 -17 -7 -31 -24 l-26 -30 7 63 c9 77 -4 81 -41 10 l-28 -53 -3
  48 c-5 74 -34 54 -48 -32 -8 -48 -19 -60 -28 -28 -6 22 -7 22 -21 3 -8 -11
  -36 -74 -62 -140 -41 -107 -58 -137 -151 -260 -110 -147 -163 -243 -183 -332
  -10 -42 -9 -56 1 -69 38 -46 251 -65 518 -45 174 13 178 12 219 -9 23 -11 45
  -21 49 -21 8 0 -1 133 -10 165 -4 11 1 4 10 -15 10 -21 18 -74 22 -135 5 -99
  5 -100 36 -120 24 -16 36 -36 53 -89 12 -38 35 -82 50 -98 43 -45 143 -77 323
  -103 50 -8 70 -13 48 -14 -67 -2 -192 20 -281 50 -49 16 -94 29 -102 29 -18 0
  -29 -59 -21 -105 9 -47 30 -65 77 -65 22 0 97 -12 167 -26 70 -14 170 -29 222
  -34 94 -7 94 -7 25 -8 -38 -1 -122 7 -185 18 -141 24 -259 26 -305 4 -89 -42
  -252 -336 -231 -417 4 -16 14 -27 29 -29 17 -2 21 -8 19 -28 -6 -44 -73 -232
  -113 -317 -50 -105 -83 -139 -146 -147 -73 -10 -166 -60 -205 -108 -31 -40
  -33 -46 -33 -125 0 -77 -1 -80 -14 -55 -8 15 -15 51 -15 79 -1 29 -2 53 -4 53
  -1 0 -14 -7 -27 -16 -19 -12 -38 -14 -88 -9 -91 10 -108 -7 -187 -186 -119
  -269 -126 -341 -45 -437 71 -85 164 -19 206 148 9 36 23 89 32 118 17 56 16
  58 -30 42 -37 -13 -77 0 -94 32 l-12 23 25 -22 c35 -33 66 -29 137 17 102 66
  132 78 307 120 209 50 270 77 333 146 86 94 251 350 251 390 0 19 -77 102
  -102 110 -11 3 -17 8 -15 11 7 6 64 -23 105 -54 22 -17 32 -20 32 -10 0 29
  -87 129 -150 170 -13 10 -19 17 -13 17 23 0 114 -82 155 -140 23 -33 46 -60
  50 -60 13 0 67 80 104 152 18 36 38 69 43 73 17 10 28 -27 35 -120 9 -116 21
  -159 49 -178 12 -8 66 -31 119 -52 54 -21 97 -39 95 -41 -6 -5 -125 19 -176
  36 -31 10 -58 17 -60 14 -2 -2 -3 -77 -2 -167 1 -91 -1 -176 -5 -191 -4 -18
  -31 -45 -80 -81 -118 -88 -179 -181 -159 -244 3 -12 18 -36 33 -54 l27 -32
  -25 16 c-13 9 -35 36 -47 59 l-23 44 -58 -60 c-75 -77 -112 -134 -128 -192 -9
  -33 -13 -39 -13 -21 -1 14 8 51 18 83 l20 56 -25 17 c-33 21 -116 29 -153 13
  -33 -13 -61 -63 -61 -107 0 -55 -22 -104 -70 -160 -68 -76 -102 -151 -108
  -235 -5 -76 12 -118 49 -118 13 0 59 38 123 103 119 121 166 148 270 155 81 5
  96 13 96 52 0 22 -6 30 -30 39 -17 5 -30 16 -30 24 0 8 87 71 193 142 291 194
  440 312 473 377 7 14 23 82 34 151 30 190 39 222 64 245 29 25 33 58 41 357 7
  234 -4 429 -31 555 -11 55 -17 158 -21 378 l-5 303 -26 37 c-32 48 -58 122
  -66 192 l-6 55 33 -85 c57 -146 69 -157 82 -73 8 58 46 96 111 112 25 7 113
  19 195 27 295 29 352 65 646 408 67 77 108 134 119 165 32 91 47 120 75 147
  27 26 38 54 22 54 -4 0 -19 -12 -35 -27 -15 -14 -30 -24 -33 -21 -3 2 4 31 15
  63 11 32 20 66 20 77 0 27 -25 22 -53 -12z m-1528 -1604 c47 -15 119 -33 160
  -41 l76 -15 -66 5 c-88 7 -209 39 -283 76 -79 39 -97 57 -26 26 30 -14 93 -37
  139 -51z"/>
</g>
</svg>
